PathFileType	4	(X/Y/Z)	/Users/itak/Documents/Research/Walk-IL/dataset/trc/00311_00010.trc
DataRate	CameraRate	NumFrames	NumMarkers	Units	OrigDataRate	OrigDataStartFrame	OrigNumFrames
100.000000	100.000000	4	53	mm	100.000000	314	629
Frame#	Time	RPSI			LPSI			L3			STRN			T10			C7			CLAV			RBAK			LBAK			LSHO			LUPA			LAEL			LAOL			LWTS			LWPS			LFRA			LIFD			LHPS			LHTS			RSHO			RUPA			RAEL			RAOL			RWTS			RWPS			RFRA			RIFD			RHTS			RHPS			RBHD			LFHD			RFHD			LBHD			LHIP			RHIP			RASI			LASI			LKNE			LTHI			LANK			LTIP			LTOE			LMT1			LMT5			LHEE			RKNE			RTHI			RANK			RTIP			RTOE			RMT1			RMT5			RHEE			
		X1	Y1	Z1	X2	Y2	Z2	X3	Y3	Z3	X4	Y4	Z4	X5	Y5	Z5	X6	Y6	Z6	X7	Y7	Z7	X8	Y8	Z8	X9	Y9	Z9	X10	Y10	Z10	X11	Y11	Z11	X12	Y12	Z12	X13	Y13	Z13	X14	Y14	Z14	X15	Y15	Z15	X16	Y16	Z16	X17	Y17	Z17	X18	Y18	Z18	X19	Y19	Z19	X20	Y20	Z20	X21	Y21	Z21	X22	Y22	Z22	X23	Y23	Z23	X24	Y24	Z24	X25	Y25	Z25	X26	Y26	Z26	X27	Y27	Z27	X28	Y28	Z28	X29	Y29	Z29	X30	Y30	Z30	X31	Y31	Z31	X32	Y32	Z32	X33	Y33	Z33	X34	Y34	Z34	X35	Y35	Z35	X36	Y36	Z36	X37	Y37	Z37	X38	Y38	Z38	X39	Y39	Z39	X40	Y40	Z40	X41	Y41	Z41	X42	Y42	Z42	X43	Y43	Z43	X44	Y44	Z44	X45	Y45	Z45	X46	Y46	Z46	X47	Y47	Z47	X48	Y48	Z48	X49	Y49	Z49	X50	Y50	Z50	X51	Y51	Z51	X52	Y52	Z52	X53	Y53	Z53	

315	3.14	-580.3724975585938	994.858642578125	-639.9376220703125	-506.420654296875	981.6099853515625	-798.5404052734375	-526.056396484375	1059.848388671875	-710.4140625	-294.6732788085938	1233.65625	-610.2355346679688	-538.86328125	1174.440307617188	-711.7819213867188	-487.7718505859375	1418.632080078125	-705.697021484375	-349.2448120117188	1334.523315429688	-638.1253051757812	-569.1600341796875	1282.175903320312	-655.8710327148438	-459.4270629882812	1383.780883789062	-806.6217041015625	-354.7244567871094	1390.578857421875	-820.175048828125	-366.5841979980469	1279.41845703125	-903.5296630859375	-382.3519897460938	1080.329345703125	-934.182373046875	-457.4205627441406	1069.656005859375	-889.6311645507812	-327.0455932617188	851.7825317382812	-892.802490234375	-350.2662963867188	846.6741333007812	-961.2647705078125	-374.9141845703125	976.1094360351562	-950.674072265625	-328.9736633300781	667.9730834960938	-912.96875	-349.63232421875	758.7915649414062	-965.8992309570312	-305.980224609375	752.653076171875	-916.8241577148438	-490.4204711914062	1394.732543945312	-533.8201293945312	-516.1636962890625	1334.178100585938	-471.6971435546875	-468.04443359375	1071.781372070312	-405.2471618652344	-481.9375610351562	1052.562866210938	-497.1610717773438	-291.3728332519531	893.6544799804688	-426.1840515136719	-342.9371643066406	873.1758422851562	-360.8570251464844	-425.7494506835938	1014.468139648438	-385.0240478515625	-220.3855590820312	722.187744140625	-411.3307189941406	-227.050048828125	795.9451293945312	-394.3522644042969	-281.5141906738281	778.2877197265625	-351.7651062011719	-510.2094421386719	1563.823486328125	-667.6607666015625	-309.3893432617188	1630.759887695312	-649.941162109375	-370.7485046386719	1627.885131835938	-580.1842651367188	-410.8080749511719	1558.068481445312	-775.90185546875	-400.6988830566406	935.69921875	-853.5841674804688	-534.6964111328125	944.126708984375	-502.63427734375	-396.5310974121094	944.9344482421875	-514.06201171875	-302.3628540039062	947.5647583007812	-747.5145874023438	-195.2927093505859	513.2060546875	-735.8312377929688	-247.281982421875	639.0262451171875	-784.2870483398438	-240.9201812744141	70.09423065185547	-816.5941772460938	-208.2859497070312	288.5831604003906	-784.0580444335938	-109.6364517211914	63.06108093261719	-652.5673217773438	-187.5283203125	43.77885055541992	-659.7363891601562	-135.7361755371094	62.86912155151367	-756.677001953125	-313.1827392578125	63.42470169067383	-794.7142944335938	-480.6791076660156	468.2024841308594	-568.6671752929688	-468.620361328125	725.401123046875	-499.7903442382812	-584.5867919921875	44.17715454101562	-660.4298706054688	-476.9996948242188	344.5518493652344	-599.9180908203125	-386.71337890625	41.84507751464844	-706.3961791992188	-443.5763549804688	38.80239486694336	-747.9153442382812	-481.3563232421875	36.953125	-635.9705810546875	-634.3072509765625	40.05572891235352	-711.6788940429688	
316	3.15	-572.8814086914062	993.9948120117188	-639.1005249023438	-497.639404296875	980.4365234375	-797.0792846679688	-518.4371337890625	1058.873413085938	-708.6988525390625	-287.4005737304688	1232.382202148438	-607.1144409179688	-531.248046875	1173.588989257812	-709.5476684570312	-479.8483581542969	1417.611572265625	-703.226318359375	-341.7438049316406	1333.244140625	-635.2638549804688	-561.8071899414062	1281.484741210938	-653.738037109375	-451.2939453125	1382.678466796875	-803.9981079101562	-346.5456848144531	1389.269897460938	-817.337158203125	-359.3010559082031	1278.5302734375	-900.8757934570312	-377.5896606445312	1079.868774414062	-932.0135498046875	-452.5210571289062	1069.75830078125	-887.0596923828125	-324.5501098632812	850.4262084960938	-891.866455078125	-348.069580078125	845.8414916992188	-960.26416015625	-371.2940979003906	975.5947875976562	-949.0701293945312	-328.6575622558594	666.7494506835938	-912.734130859375	-348.4981384277344	757.9786987304688	-965.2359008789062	-304.1334533691406	751.6251220703125	-916.5238647460938	-483.1017150878906	1393.876708984375	-531.3595581054688	-508.9004821777344	1333.292358398438	-469.1678161621094	-458.5057983398438	1070.950805664062	-403.5652160644531	-473.260009765625	1051.688598632812	-495.2960815429688	-279.5319519042969	895.2816162109375	-426.8174133300781	-330.1819152832031	873.795654296875	-360.9224853515625	-415.3837280273438	1014.024475097656	-383.8174743652344	-205.9210052490234	724.834716796875	-413.1609802246094	-213.5354156494141	798.3839111328125	-395.8486633300781	-267.3382873535156	779.7994995117188	-352.775390625	-502.3417053222656	1562.611694335938	-665.8540649414062	-301.5244750976562	1629.527709960938	-647.7514038085938	-363.0556945800781	1626.855834960938	-578.1658325195312	-402.6332702636719	1556.560180664062	-773.8115844726562	-391.485107421875	934.5304565429688	-851.2608642578125	-528.2166748046875	943.302001953125	-501.3026123046875	-390.1128234863281	943.86376953125	-511.4879150390625	-294.1526794433594	946.5647583007812	-744.232666015625	-186.5277099609375	512.5919189453125	-731.5921020507812	-238.7911529541016	637.9993286132812	-780.9002685546875	-211.9659118652344	66.07881927490234	-801.3737182617188	-189.7024230957031	286.7510681152344	-774.0018310546875	-86.63214874267578	67.93598937988281	-632.6892700195312	-163.5291595458984	46.0838623046875	-642.0604858398438	-108.8134841918945	63.84026336669922	-737.67724609375	-284.7209777832031	57.72164535522461	-781.8333740234375	-477.6674499511719	467.38134765625	-567.3656005859375	-463.7013549804688	724.5083618164062	-498.3338623046875	-584.506103515625	44.28336334228516	-660.4765014648438	-474.9375610351562	343.7066650390625	-599.0228271484375	-386.6913146972656	41.81830978393555	-706.3792724609375	-443.5389404296875	38.80298614501953	-747.8688354492188	-481.3407592773438	36.93676376342773	-636.0027465820312	-634.2415161132812	40.39306259155273	-711.6730346679688	
317	3.16	-565.337646484375	992.9581298828125	-638.1093139648438	-488.8694763183594	979.075927734375	-795.4721069335938	-510.7828979492188	1057.85986328125	-706.9093017578125	-279.9995422363281	1230.982788085938	-604.0220947265625	-523.5501098632812	1172.608276367188	-707.2406005859375	-471.8174133300781	1416.452758789062	-700.7376098632812	-334.1256408691406	1331.850219726562	-632.4151611328125	-554.3978881835938	1280.673950195312	-651.6233520507812	-443.0902709960938	1381.432006835938	-801.364990234375	-338.315185546875	1387.8125	-814.5282592773438	-351.979736328125	1277.475952148438	-898.232666015625	-372.710693359375	1079.234375	-929.79541015625	-447.4293823242188	1069.6787109375	-884.4014282226562	-321.9105529785156	848.957275390625	-890.8477783203125	-345.8251342773438	844.8759155273438	-959.1631469726562	-367.5535278320312	974.9168701171875	-947.3770751953125	-328.2706604003906	665.4087524414062	-912.3214721679688	-347.3228454589844	757.027587890625	-964.427001953125	-302.3181457519531	750.4052124023438	-916.117919921875	-475.6933898925781	1392.869873046875	-528.8867797851562	-501.5892028808594	1332.248046875	-466.6629943847656	-449.2554321289062	1069.9111328125	-401.9428405761719	-464.7914428710938	1050.659790039062	-493.4945373535156	-268.0742492675781	896.7377319335938	-427.4742431640625	-317.7976989746094	874.23046875	-361.1424865722656	-405.330078125	1013.3623046875	-382.6856689453125	-191.8054504394531	727.3705444335938	-415.1909484863281	-200.3848266601562	800.6947631835938	-397.4856872558594	-253.5021667480469	781.149658203125	-353.969970703125	-494.3981018066406	1561.22802734375	-664.0177612304688	-293.6007995605469	1628.1953125	-645.5570068359375	-355.2942199707031	1625.699951171875	-576.13671875	-394.403564453125	1554.92138671875	-771.7041015625	-382.3713073730469	933.1817016601562	-848.8348388671875	-521.5928955078125	942.3578491210938	-499.8441162109375	-383.5500183105469	942.716064453125	-508.8765258789062	-285.9092407226562	945.4346923828125	-740.933837890625	-177.9322052001953	511.6979675292969	-727.5732421875	-230.3350524902344	636.782470703125	-777.6951293945312	-183.8426666259766	62.81047439575195	-785.7310180664062	-171.7850646972656	285.1705932617188	-764.0419921875	-64.62206268310547	73.437744140625	-612.9994506835938	-140.4289093017578	49.08333587646484	-624.3515014648438	-82.86666870117188	65.47304534912109	-718.6130981445312	-256.9461669921875	52.78862380981445	-768.3980102539062	-474.5229797363281	466.4866638183594	-566.0094604492188	-458.7088928222656	723.543701171875	-496.7344360351562	-584.4224853515625	44.39084625244141	-660.5689697265625	-472.7943115234375	342.792724609375	-598.0969848632812	-386.6623840332031	41.79179000854492	-706.3404541015625	-443.4859008789062	38.79362106323242	-747.8284912109375	-481.2729797363281	36.91063690185547	-636.0389404296875	-634.1748657226562	40.78384399414062	-711.7325439453125	
318	3.17	-557.7237548828125	991.73291015625	-636.9614868164062	-480.1041259765625	977.521728515625	-793.7191772460938	-503.0794677734375	1056.795654296875	-705.0340576171875	-272.4668884277344	1229.474487304688	-600.9545288085938	-515.7634887695312	1171.507690429688	-704.8739013671875	-463.6788330078125	1415.16748046875	-698.2359619140625	-326.3853149414062	1330.357421875	-629.5808715820312	-546.9383544921875	1279.755859375	-649.5264892578125	-434.816162109375	1380.051513671875	-798.7293701171875	-330.0344848632812	1386.212768554688	-811.7548828125	-344.6240234375	1276.2587890625	-895.6006469726562	-367.7034912109375	1078.421875	-927.5347290039062	-442.1288757324219	1069.408935546875	-881.6680908203125	-319.1180419921875	847.3681030273438	-889.7368774414062	-343.5150756835938	843.779052734375	-957.9598388671875	-363.6736450195312	974.0731201171875	-945.5961303710938	-327.7980651855469	663.9542846679688	-911.7315673828125	-346.0804443359375	755.9436645507812	-963.473876953125	-300.588134765625	748.9249267578125	-915.5647583007812	-468.1929016113281	1391.721313476562	-526.40576171875	-494.2335205078125	1331.05419921875	-464.1883544921875	-440.2912292480469	1068.670043945312	-400.3660583496094	-456.5458679199219	1049.482788085938	-491.7415161132812	-257.0079345703125	898.022216796875	-428.1251525878906	-305.7880249023438	874.4825439453125	-361.4986267089844	-395.5774841308594	1012.49072265625	-381.6141662597656	-178.0529632568359	729.794921875	-417.4107055664062	-187.6056976318359	802.873779296875	-399.2586975097656	-240.0142669677734	782.3363037109375	-355.3352661132812	-486.37353515625	1559.68310546875	-662.1520385742188	-285.6212158203125	1626.777709960938	-643.3560791015625	-347.4688720703125	1624.430786132812	-574.0960693359375	-386.1144714355469	1553.16357421875	-769.5770874023438	-373.3093566894531	931.6504516601562	-846.2901611328125	-514.8670654296875	941.2913208007812	-498.2636413574219	-376.837646484375	941.497314453125	-506.2261047363281	-277.6097106933594	944.1898803710938	-737.609375	-169.4862213134766	510.5431823730469	-723.6967163085938	-221.8533477783203	635.3937377929688	-774.6223754882812	-156.7666168212891	60.28483963012695	-769.9170532226562	-154.6159210205078	283.8211669921875	-754.2908935546875	-43.52774429321289	79.49250793457031	-593.8759765625	-118.1847534179688	52.68989944458008	-606.89990234375	-57.98873519897461	67.76222229003906	-699.8463134765625	-230.0616912841797	48.60144424438477	-754.5726318359375	-471.2830505371094	465.5276184082031	-564.625244140625	-453.6553649902344	722.507080078125	-495.0070495605469	-584.3304443359375	44.50192642211914	-660.7393188476562	-470.5956115722656	341.8202514648438	-597.1636352539062	-386.6266479492188	41.7667236328125	-706.2800903320312	-443.406982421875	38.76729583740234	-747.80859375	-481.1626281738281	36.88713073730469	-636.09228515625	-634.1134033203125	41.24466323852539	-711.902099609375	
